<svg xmlns="http://www.w3.org/2000/svg" viewBox="0 0 445.48 445.14"><g id="Calque_2" data-name="Calque 2"><g id="Calque_1-2" data-name="Calque 1"><path d="M65.77,343.73,259.4,150.1l35.68,35.67L101.45,379.4Z"/><path d="M443.94,49.89l-3-6.32L443.49,41a5.75,5.75,0,0,0,0-8.12L412.25,1.68a5.75,5.75,0,0,0-8.12,0l-140.5,140.5L303,181.55,434.53,50l1.74,3.64a6.82,6.82,0,0,1-1.35,7.78L347.46,148.9a36.79,36.79,0,0,1-13.11,8.46l-.56.22a29.4,29.4,0,0,0-17.13,17.25l-1.35,3.69c0,.06-.05.11-.05.17l-.06.17s-.05.11-.05.17a6.54,6.54,0,0,0-.34,2.12,7,7,0,1,0,11.93-4.93,7.17,7.17,0,0,0-.95-.78,21.25,21.25,0,0,1,11.09-9.86l.56-.22A45.39,45.39,0,0,0,353.57,155L441,67.47a15.52,15.52,0,0,0,2.9-17.58Z"/><path d="M4.28,445.14a4.28,4.28,0,0,0,3-1.23L21.7,429.52l-6-6L1.26,437.86a4.26,4.26,0,0,0,0,6.05,4.55,4.55,0,0,0,3,1.23Z"/><path d="M73.55,402l21.51-17L60.11,350.11l-17,21.5-22,45.25L28.3,424Z"/></g></g></svg>